<svg xmlns="http://www.w3.org/2000/svg" viewBox="0 0 1280 720" preserveAspectRatio="xMidYMid meet" role="img" aria-label="Pyx with the Allocation view open: the portfolio grouped by sector as a treemap with the VOO index fund decomposed by lookthrough, beside a sector table with value, weight, and drift" font-family='system-ui, -apple-system, "Segoe UI", Inter, Helvetica, Arial, sans-serif'><rect width="1280" height="720" fill="#07080b"/><g transform="translate(50.00,20.00) scale(1.00000)"><defs><linearGradient id="aw-frame-al" x1="0" y1="0" x2="1" y2="1"><stop offset="0%" stop-color="#45E0AD" stop-opacity="0.3"></stop><stop offset="55%" stop-color="#7C8AF8" stop-opacity="0.14"></stop><stop offset="100%" stop-color="#5BC8E8" stop-opacity="0.2"></stop></linearGradient><clipPath id="aw-main-al"><rect x="185" y="2" width="993" height="646"></rect></clipPath></defs><rect x="1" y="1" width="1178" height="678" rx="16" fill="#0A0D14"></rect><line x1="184" y1="1" x2="184" y2="647" stroke="#ffffff0d"></line><g transform="translate(20, 18)"><rect x="0" y="8" width="3.6" height="3.6" rx="1" fill="#138A68"></rect><rect x="4.4" y="4" width="3.6" height="3.6" rx="1" fill="#17BE8B"></rect><rect x="8.8" y="0" width="3.6" height="3.6" rx="1" fill="#45E0AD"></rect></g><text x="42" y="30" font-size="13" font-weight="600" fill="#E9E8E4">Pyx</text><text x="20" y="64" font-size="15" font-weight="600" fill="#E9E8E4" style="font-family:ui-monospace, SFMono-Regular, Menlo, Consolas, monospace">$384,913.07</text><path d="M22,76 L25,71.5 L28,76 Z" fill="#7DD3A8"></path><text x="33" y="80" font-size="10" fill="#7DD3A8" style="font-family:ui-monospace, SFMono-Regular, Menlo, Consolas, monospace">+$2,184.41 (+0.57%)</text><line x1="12" y1="94" x2="172" y2="94" stroke="#ffffff0d"></line><g><g><g stroke="#5C606B" stroke-width="1.2" stroke-linecap="round" stroke-linejoin="round" fill="none"><rect x="22" y="108" width="4.5" height="4.5" rx="1"></rect><rect x="29" y="108" width="4.5" height="4.5" rx="1"></rect><rect x="22" y="115" width="11.5" height="4.5" rx="1"></rect></g></g><text x="42" y="120" font-size="12" fill="#969AA4">Overview</text></g><g><g><g stroke="#5C606B" stroke-width="1.2" stroke-linecap="round" stroke-linejoin="round" fill="none"><path d="M22,139.5 L33.5,139.5"></path><path d="M22,144 L33.5,144"></path><path d="M22,148.5 L29.5,148.5"></path></g></g><text x="42" y="150" font-size="12" fill="#969AA4">Holdings</text></g><g><rect x="10" y="164" width="164" height="25" rx="6" fill="#ffffff0a"></rect><rect x="10" y="164" width="2.5" height="25" rx="1.25" fill="#45E0AD"></rect><g><g stroke="#E9E8E4" stroke-width="1.2" stroke-linecap="round" stroke-linejoin="round" fill="none"><circle cx="28" cy="174" r="5.5"></circle><path d="M28,168.5 L28,174 L32.5,177.5"></path></g></g><text x="42" y="180" font-size="12" fill="#E9E8E4">Allocation</text></g><g><g><g stroke="#5C606B" stroke-width="1.2" stroke-linecap="round" stroke-linejoin="round" fill="none"><path d="M22,208 L26,203 L29,205.5 L33.5,199.5"></path><path d="M30.5,199.5 L33.5,199.5 L33.5,202.5"></path></g></g><text x="42" y="210" font-size="12" fill="#969AA4">Performance</text></g><g><g><g stroke="#5C606B" stroke-width="1.2" stroke-linecap="round" stroke-linejoin="round" fill="none"><path d="M23.5,228 h6 l3,3 v9 h-9 z"></path><path d="M29.5,228 v3 h3"></path><path d="M25.5,234.5 h4.5"></path><path d="M25.5,237 h3"></path></g></g><text x="42" y="240" font-size="12" fill="#969AA4">Notes</text></g><text x="22" y="278" font-size="10" letter-spacing="1.2" fill="#5C606B" style="font-family:ui-monospace, SFMono-Regular, Menlo, Consolas, monospace">CHARTS</text><text x="162" y="278" font-size="12" fill="#5C606B" style="font-family:ui-monospace, SFMono-Regular, Menlo, Consolas, monospace">+</text><g><text x="22" y="302" font-size="11" fill="#969AA4" style="font-family:ui-monospace, SFMono-Regular, Menlo, Consolas, monospace">Core Holdings</text><g stroke="#5C606B" stroke-width="1.1" fill="none" stroke-linecap="round" stroke-linejoin="round"><path d="M159,292 L159,299"></path><path d="M156,296 L159,299 L162,296"></path><path d="M154,302 L164,302"></path></g></g><g><text x="22" y="329" font-size="11" fill="#969AA4" style="font-family:ui-monospace, SFMono-Regular, Menlo, Consolas, monospace">AAPL, AXP, KO</text><g stroke="#5C606B" stroke-width="1.1" fill="none" stroke-linecap="round" stroke-linejoin="round"><path d="M159,319 L159,326"></path><path d="M156,323 L159,326 L162,323"></path><path d="M154,329 L164,329"></path></g></g><g><text x="22" y="356" font-size="11" fill="#969AA4" style="font-family:ui-monospace, SFMono-Regular, Menlo, Consolas, monospace">Energy Watch</text><g stroke="#5C606B" stroke-width="1.1" fill="none" stroke-linecap="round" stroke-linejoin="round"><path d="M159,346 L159,353"></path><path d="M156,350 L159,353 L162,350"></path><path d="M154,356 L164,356"></path></g></g><g><text x="22" y="383" font-size="11" fill="#969AA4" style="font-family:ui-monospace, SFMono-Regular, Menlo, Consolas, monospace">BAC, MCO</text><g stroke="#5C606B" stroke-width="1.1" fill="none" stroke-linecap="round" stroke-linejoin="round"><path d="M159,373 L159,380"></path><path d="M156,377 L159,380 L162,377"></path><path d="M154,383 L164,383"></path></g></g><g><text x="22" y="410" font-size="11" fill="#969AA4" style="font-family:ui-monospace, SFMono-Regular, Menlo, Consolas, monospace">CVX</text><g stroke="#5C606B" stroke-width="1.1" fill="none" stroke-linecap="round" stroke-linejoin="round"><path d="M159,400 L159,407"></path><path d="M156,404 L159,407 L162,404"></path><path d="M154,410 L164,410"></path></g></g><text x="22" y="454" font-size="10" letter-spacing="1.2" fill="#5C606B" style="font-family:ui-monospace, SFMono-Regular, Menlo, Consolas, monospace">TAGS</text><text x="162" y="454" font-size="12" fill="#5C606B" style="font-family:ui-monospace, SFMono-Regular, Menlo, Consolas, monospace">+</text><g><circle cx="26" cy="474.5" r="3" fill="#6FA9D8"></circle><text x="38" y="478" font-size="11" fill="#969AA4">Core</text></g><g><circle cx="26" cy="500.5" r="3" fill="#7DD3A8"></circle><text x="38" y="504" font-size="11" fill="#969AA4">Dividend</text></g><g><circle cx="26" cy="526.5" r="3" fill="#7C8AF8"></circle><text x="38" y="530" font-size="11" fill="#969AA4">Moat</text></g><g><circle cx="26" cy="552.5" r="3" fill="#D4A574"></circle><text x="38" y="556" font-size="11" fill="#969AA4">Energy</text></g><g><circle cx="26" cy="578.5" r="3" fill="#5BC8E8"></circle><text x="38" y="582" font-size="11" fill="#969AA4">Watch</text></g><g stroke="#5C606B" stroke-width="1.1" fill="none" stroke-linecap="round" stroke-linejoin="round"><path d="M22,636 L30,636 M27,633 L30,636 L27,639"></path><path d="M30,642 L22,642 M25,639 L22,642 L25,645"></path></g><text x="38" y="644" font-size="10.5" fill="#5C606B">Activity</text><g stroke="#5C606B" stroke-width="1.1" fill="none"><circle cx="160" cy="639" r="4.5"></circle><circle cx="160" cy="639" r="1.6"></circle></g><rect x="480" y="14" width="400" height="30" rx="8" fill="#05060B" stroke="#ffffff12"></rect><text x="496" y="33" font-size="11.5" fill="#5C606B" style="font-family:ui-monospace, SFMono-Regular, Menlo, Consolas, monospace">Type a command...</text><rect x="840" y="20" width="30" height="18" rx="4" fill="#ffffff0a"></rect><text x="855" y="33" text-anchor="middle" font-size="10" fill="#969AA4" style="font-family:ui-monospace, SFMono-Regular, Menlo, Consolas, monospace">⌘K</text><g clip-path="url(#aw-main-al)"><svg viewBox="0 0 1100 520" x="212" y="64" width="936" height="442.4727272727273"><rect x="1" y="1" width="1098" height="518" rx="14" fill="#0A0D14" stroke="#ffffff12"></rect><text x="24" y="40" font-size="17" font-weight="600" fill="#E9E8E4">Allocation</text><g><rect x="690" y="24" width="66" height="20" rx="5" fill="transparent" stroke="#ffffff0d"></rect><text x="723" y="37.5" text-anchor="middle" font-size="10" fill="#5C606B">Summary</text></g><g><rect x="760" y="24" width="66" height="20" rx="5" fill="#ffffff0f" stroke="#ffffff1f"></rect><text x="793" y="37.5" text-anchor="middle" font-size="10" fill="#E9E8E4">Detailed</text></g><g><rect x="846" y="24" width="54" height="20" rx="5" fill="transparent" stroke="#ffffff0d"></rect><text x="873" y="37.5" text-anchor="middle" font-size="10" fill="#5C606B">Donut</text></g><g><rect x="906" y="24" width="40" height="20" rx="5" fill="transparent" stroke="#ffffff0d"></rect><text x="926" y="37.5" text-anchor="middle" font-size="10" fill="#5C606B">Bar</text></g><g><rect x="952" y="24" width="66" height="20" rx="5" fill="#ffffff0f" stroke="#ffffff1f"></rect><text x="985" y="37.5" text-anchor="middle" font-size="10" fill="#E9E8E4">Treemap</text></g><rect x="24" y="54" width="276" height="22" rx="6" fill="#05060B" stroke="#ffffff12"></rect><g><text x="63" y="68.5" text-anchor="middle" font-size="10" fill="#5C606B">Asset Class</text></g><g><rect x="104" y="56" width="50" height="18" rx="4" fill="#ffffff0f" stroke="#ffffff1f"></rect><text x="129" y="68.5" text-anchor="middle" font-size="10" fill="#E9E8E4">Sector</text></g><g><text x="184" y="68.5" text-anchor="middle" font-size="10" fill="#5C606B">Region</text></g><g><text x="256" y="68.5" text-anchor="middle" font-size="10" fill="#5C606B">Account Type</text></g><circle cx="332" cy="65" r="2.5" fill="#D4A574"></circle><text x="341" y="68.5" font-size="10" fill="#969AA4" style="font-family:ui-monospace, SFMono-Regular, Menlo, Consolas, monospace">Total drift: 2.2%</text><text x="452" y="68.5" font-size="10" fill="#969AA4">Exclude cash</text><rect x="522" y="58" width="26" height="14" rx="7" fill="#45E0AD22" stroke="#45E0AD66"></rect><circle cx="541" cy="65" r="5" fill="#45E0AD"></circle><g data-pop="true" style="--i:-10"><rect x="25" y="97" width="226" height="167.5" rx="4" fill="#6FA9D8" fill-opacity="0.35" stroke="#6FA9D8" stroke-opacity="0.75" stroke-width="1"></rect><text x="138" y="179.75" text-anchor="middle" font-size="12.5" font-weight="600" fill="#E9E8E4" style="font-family:ui-monospace, SFMono-Regular, Menlo, Consolas, monospace">AXP</text><text x="138" y="195.75" text-anchor="middle" font-size="9.5" fill="#969AA4" style="font-family:ui-monospace, SFMono-Regular, Menlo, Consolas, monospace">18.6%</text></g><g data-pop="true" style="--i:-8.4"><rect x="25" y="266.5" width="226" height="98" rx="4" fill="#6FA9D8" fill-opacity="0.29" stroke="#6FA9D8" stroke-opacity="0.75" stroke-width="1"></rect><text x="138" y="314.5" text-anchor="middle" font-size="12.5" font-weight="600" fill="#E9E8E4" style="font-family:ui-monospace, SFMono-Regular, Menlo, Consolas, monospace">BAC</text><text x="138" y="330.5" text-anchor="middle" font-size="9.5" fill="#969AA4" style="font-family:ui-monospace, SFMono-Regular, Menlo, Consolas, monospace">11.0%</text></g><g data-pop="true" style="--i:-6.8"><rect x="25" y="366.5" width="124.7" height="63.5" rx="4" fill="#6FA9D8" fill-opacity="0.24" stroke="#6FA9D8" stroke-opacity="0.75" stroke-width="1"></rect><text x="87.35" y="397.25" text-anchor="middle" font-size="12.5" font-weight="600" fill="#E9E8E4" style="font-family:ui-monospace, SFMono-Regular, Menlo, Consolas, monospace">MCO</text><text x="87.35" y="413.25" text-anchor="middle" font-size="9.5" fill="#969AA4" style="font-family:ui-monospace, SFMono-Regular, Menlo, Consolas, monospace">4.0%</text></g><g data-pop="true" style="--i:-5.199999999999999"><rect x="151.7" y="366.5" width="99.3" height="63.5" rx="4" fill="#6FA9D8" fill-opacity="0.21" stroke="#6FA9D8" stroke-opacity="0.75" stroke-width="1"></rect><text x="201.35" y="397.25" text-anchor="middle" font-size="12.5" font-weight="600" fill="#E9E8E4" style="font-family:ui-monospace, SFMono-Regular, Menlo, Consolas, monospace">CB</text><text x="201.35" y="413.25" text-anchor="middle" font-size="9.5" fill="#969AA4" style="font-family:ui-monospace, SFMono-Regular, Menlo, Consolas, monospace">3.2%</text></g><g data-pop="true" style="--i:-3.5999999999999996"><rect x="25" y="432" width="226" height="23" rx="4" fill="#6FA9D8" fill-opacity="0.17" stroke="#6FA9D8" stroke-opacity="0.55" stroke-width="1" stroke-dasharray="4 3"></rect><text x="138" y="447" text-anchor="middle" font-size="9.5" font-weight="600" fill="#969AA4" style="font-family:ui-monospace, SFMono-Regular, Menlo, Consolas, monospace">VOO</text></g><g data-pop="true" style="--i:-2"><rect x="253" y="97" width="162" height="323" rx="4" fill="#7C8AF8" fill-opacity="0.33" stroke="#7C8AF8" stroke-opacity="0.75" stroke-width="1"></rect><text x="334" y="257.5" text-anchor="middle" font-size="12.5" font-weight="600" fill="#E9E8E4" style="font-family:ui-monospace, SFMono-Regular, Menlo, Consolas, monospace">AAPL</text><text x="334" y="273.5" text-anchor="middle" font-size="9.5" fill="#969AA4" style="font-family:ui-monospace, SFMono-Regular, Menlo, Consolas, monospace">25.6%</text></g><g data-pop="true" style="--i:-0.3999999999999986"><rect x="253" y="422" width="162" height="33" rx="4" fill="#7C8AF8" fill-opacity="0.17" stroke="#7C8AF8" stroke-opacity="0.55" stroke-width="1" stroke-dasharray="4 3"></rect><text x="334" y="442" text-anchor="middle" font-size="9.5" font-weight="600" fill="#969AA4" style="font-family:ui-monospace, SFMono-Regular, Menlo, Consolas, monospace">VOO</text></g><g data-pop="true" style="--i:1.200000000000001"><rect x="417" y="97" width="139.2" height="157" rx="4" fill="#7DD3A8" fill-opacity="0.31" stroke="#7DD3A8" stroke-opacity="0.75" stroke-width="1"></rect><text x="486.6" y="174.5" text-anchor="middle" font-size="12.5" font-weight="600" fill="#E9E8E4" style="font-family:ui-monospace, SFMono-Regular, Menlo, Consolas, monospace">KO</text><text x="486.6" y="190.5" text-anchor="middle" font-size="9.5" fill="#969AA4" style="font-family:ui-monospace, SFMono-Regular, Menlo, Consolas, monospace">10.9%</text></g><g data-pop="true" style="--i:2.8000000000000007"><rect x="558.2" y="97" width="40.8" height="157" rx="4" fill="#7DD3A8" fill-opacity="0.21" stroke="#7DD3A8" stroke-opacity="0.75" stroke-width="1"></rect><text x="578.6" y="179" text-anchor="middle" font-size="9.5" font-weight="600" fill="#969AA4" style="font-family:ui-monospace, SFMono-Regular, Menlo, Consolas, monospace">KHC</text></g><g data-pop="true" style="--i:4.4"><rect x="417" y="256" width="108.4" height="155" rx="4" fill="#D4A574" fill-opacity="0.31" stroke="#D4A574" stroke-opacity="0.75" stroke-width="1"></rect><text x="471.2" y="332.5" text-anchor="middle" font-size="12.5" font-weight="600" fill="#E9E8E4" style="font-family:ui-monospace, SFMono-Regular, Menlo, Consolas, monospace">CVX</text><text x="471.2" y="348.5" text-anchor="middle" font-size="9.5" fill="#969AA4" style="font-family:ui-monospace, SFMono-Regular, Menlo, Consolas, monospace">8.4%</text></g><g data-pop="true" style="--i:6"><rect x="527.4" y="256" width="71.6" height="155" rx="4" fill="#D4A574" fill-opacity="0.23" stroke="#D4A574" stroke-opacity="0.75" stroke-width="1"></rect><text x="563.1999999999999" y="332.5" text-anchor="middle" font-size="12.5" font-weight="600" fill="#E9E8E4" style="font-family:ui-monospace, SFMono-Regular, Menlo, Consolas, monospace">OXY</text><text x="563.1999999999999" y="348.5" text-anchor="middle" font-size="9.5" fill="#969AA4" style="font-family:ui-monospace, SFMono-Regular, Menlo, Consolas, monospace">5.6%</text></g><g data-pop="true" style="--i:7.600000000000001"><rect x="417" y="413" width="111" height="42" rx="4" fill="#E57373" fill-opacity="0.27" stroke="#E57373" stroke-opacity="0.75" stroke-width="1"></rect><text x="472.5" y="437.5" text-anchor="middle" font-size="9.5" font-weight="600" fill="#969AA4" style="font-family:ui-monospace, SFMono-Regular, Menlo, Consolas, monospace">DVA</text></g><g data-pop="true" style="--i:9.200000000000003"><rect x="530" y="413" width="69" height="42" rx="4" fill="#E57373" fill-opacity="0.17" stroke="#E57373" stroke-opacity="0.55" stroke-width="1" stroke-dasharray="4 3"></rect><text x="564.5" y="437.5" text-anchor="middle" font-size="9.5" font-weight="600" fill="#969AA4" style="font-family:ui-monospace, SFMono-Regular, Menlo, Consolas, monospace">VOO</text></g><text x="24" y="480" font-size="10.5" fill="#5C606B">VOO shown decomposed into the sectors inside it. The lookthrough dataset ships with the app and works offline.</text><text x="620" y="110" text-anchor="start" font-size="9.5" letter-spacing="1.2" fill="#5C606B" style="font-family:ui-monospace, SFMono-Regular, Menlo, Consolas, monospace">SECTOR</text><text x="910" y="110" text-anchor="end" font-size="9.5" letter-spacing="1.2" fill="#5C606B" style="font-family:ui-monospace, SFMono-Regular, Menlo, Consolas, monospace">VALUE</text><text x="992" y="110" text-anchor="end" font-size="9.5" letter-spacing="1.2" fill="#5C606B" style="font-family:ui-monospace, SFMono-Regular, Menlo, Consolas, monospace">WEIGHT</text><text x="1052" y="110" text-anchor="end" font-size="9.5" letter-spacing="1.2" fill="#5C606B" style="font-family:ui-monospace, SFMono-Regular, Menlo, Consolas, monospace">DRIFT</text><g><rect x="608" y="121" width="456" height="34" rx="6" fill="#ffffff05"></rect><rect x="620" y="131" width="7" height="7" rx="2" fill="#6FA9D8"></rect><text x="638" y="141" font-size="12" font-weight="600" fill="#E9E8E4" style="font-family:ui-monospace, SFMono-Regular, Menlo, Consolas, monospace">Financial Services</text><text x="910" y="141" text-anchor="end" font-size="11" fill="#969AA4" style="font-family:ui-monospace, SFMono-Regular, Menlo, Consolas, monospace">$130,749.74</text><text x="992" y="141" text-anchor="end" font-size="11" fill="#E9E8E4" style="font-family:ui-monospace, SFMono-Regular, Menlo, Consolas, monospace">39.5%</text><text x="1052" y="141" text-anchor="end" font-size="11" fill="#7DD3A8" style="font-family:ui-monospace, SFMono-Regular, Menlo, Consolas, monospace">+1.8%</text></g><g><rect x="608" y="165" width="456" height="34" rx="6" fill="#ffffff05"></rect><rect x="620" y="175" width="7" height="7" rx="2" fill="#7C8AF8"></rect><text x="638" y="185" font-size="12" font-weight="600" fill="#E9E8E4" style="font-family:ui-monospace, SFMono-Regular, Menlo, Consolas, monospace">Technology</text><text x="910" y="185" text-anchor="end" font-size="11" fill="#969AA4" style="font-family:ui-monospace, SFMono-Regular, Menlo, Consolas, monospace">$94,007.41</text><text x="992" y="185" text-anchor="end" font-size="11" fill="#E9E8E4" style="font-family:ui-monospace, SFMono-Regular, Menlo, Consolas, monospace">28.4%</text><text x="1052" y="185" text-anchor="end" font-size="11" fill="#E57373" style="font-family:ui-monospace, SFMono-Regular, Menlo, Consolas, monospace">-1.4%</text></g><g><rect x="608" y="209" width="456" height="34" rx="6" fill="#ffffff05"></rect><rect x="620" y="219" width="7" height="7" rx="2" fill="#7DD3A8"></rect><text x="638" y="229" font-size="12" font-weight="600" fill="#E9E8E4" style="font-family:ui-monospace, SFMono-Regular, Menlo, Consolas, monospace">Consumer Defensive</text><text x="910" y="229" text-anchor="end" font-size="11" fill="#969AA4" style="font-family:ui-monospace, SFMono-Regular, Menlo, Consolas, monospace">$47,003.70</text><text x="992" y="229" text-anchor="end" font-size="11" fill="#E9E8E4" style="font-family:ui-monospace, SFMono-Regular, Menlo, Consolas, monospace">14.2%</text><text x="1052" y="229" text-anchor="end" font-size="11" fill="#7DD3A8" style="font-family:ui-monospace, SFMono-Regular, Menlo, Consolas, monospace">+0.4%</text></g><g><rect x="608" y="253" width="456" height="34" rx="6" fill="#ffffff05"></rect><rect x="620" y="263" width="7" height="7" rx="2" fill="#D4A574"></rect><text x="638" y="273" font-size="12" font-weight="600" fill="#E9E8E4" style="font-family:ui-monospace, SFMono-Regular, Menlo, Consolas, monospace">Energy</text><text x="910" y="273" text-anchor="end" font-size="11" fill="#969AA4" style="font-family:ui-monospace, SFMono-Regular, Menlo, Consolas, monospace">$46,341.68</text><text x="992" y="273" text-anchor="end" font-size="11" fill="#E9E8E4" style="font-family:ui-monospace, SFMono-Regular, Menlo, Consolas, monospace">14.0%</text><text x="1052" y="273" text-anchor="end" font-size="11" fill="#E57373" style="font-family:ui-monospace, SFMono-Regular, Menlo, Consolas, monospace">-0.7%</text></g><g><rect x="608" y="297" width="456" height="34" rx="6" fill="#ffffff05"></rect><rect x="620" y="307" width="7" height="7" rx="2" fill="#E57373"></rect><text x="638" y="317" font-size="12" font-weight="600" fill="#E9E8E4" style="font-family:ui-monospace, SFMono-Regular, Menlo, Consolas, monospace">Healthcare</text><text x="910" y="317" text-anchor="end" font-size="11" fill="#969AA4" style="font-family:ui-monospace, SFMono-Regular, Menlo, Consolas, monospace">$12,909.47</text><text x="992" y="317" text-anchor="end" font-size="11" fill="#E9E8E4" style="font-family:ui-monospace, SFMono-Regular, Menlo, Consolas, monospace">3.9%</text><text x="1052" y="317" text-anchor="end" font-size="11" fill="#E57373" style="font-family:ui-monospace, SFMono-Regular, Menlo, Consolas, monospace">-0.1%</text></g><text x="620" y="378" font-size="10" fill="#5C606B">Drift measured against your target weights in classifications.toml</text><line x1="608" y1="426" x2="1064" y2="426" stroke="#ffffff0d"></line><text x="620" y="452" font-size="10.5" fill="#5C606B">Total, cash excluded</text><text x="910" y="452" text-anchor="end" font-size="10.5" font-weight="600" fill="#E9E8E4" style="font-family:ui-monospace, SFMono-Regular, Menlo, Consolas, monospace">$331,012.00</text><text x="620" y="474" font-size="10.5" fill="#5C606B">Portfolio</text><text x="910" y="474" text-anchor="end" font-size="10.5" fill="#969AA4" style="font-family:ui-monospace, SFMono-Regular, Menlo, Consolas, monospace">$384,913.07</text></svg></g><line x1="1" y1="648" x2="1179" y2="648" stroke="#ffffff0d"></line><circle cx="24" cy="664" r="2.5" fill="#7DD3A8"></circle><text x="34" y="668" font-size="10" fill="#5C606B" style="font-family:ui-monospace, SFMono-Regular, Menlo, Consolas, monospace">Last sync: 16:12:50</text><g stroke="#7DD3A8" stroke-width="1.3" fill="none" stroke-linecap="round" stroke-linejoin="round"><path d="M1004,664 L1008,667.5 L1014,660"></path></g><text x="1156" y="668" text-anchor="end" font-size="10" fill="#5C606B" style="font-family:ui-monospace, SFMono-Regular, Menlo, Consolas, monospace">Refreshed 12 holdings</text><rect x="1" y="1" width="1178" height="678" rx="16" fill="none" stroke="url(#aw-frame-al)" stroke-width="1.5"></rect></g></svg>
